PathFileType	4	(X/Y/Z)	OpenSim_Sub01_CSBaseline_Accel.trc
DataRate	CameraRate	NumFrames	NumMarkers	Units	OrigDataRate	OrigDataStartFrame	OrigNumFrames
100	100	30	8	m	100	5207	5950
Frame#	Time	torso_imu_offset_imu	pelvis_imu_offset_imu	tibia_r_imu_offset_imu	femur_r_imu_offset_imu	tibia_l_imu_offset_imu	femur_l_imu_offset_imu	toes_r_imu_offset_imu	toes_l_imu_offset_imu
				X1	Y1	Z1	X2	Y2	Z2	X3	Y3	Z3	X4	Y4	Z4	X5	Y5	Z5	X6	Y6	Z6	X7	Y7	Z7	X8		Y8	Z8	

5207	52.06000000	10.01789695	-1.33543760	7.02623391	11.27429520	2.08346732	0.93039161	12.07419134	0.70427150	0.80492407	11.25522526	-0.51343171	-0.41413555	8.23356350	-3.79471198	-0.69812715	6.77578588	1.98589840	-2.47957242	5.06516628	-1.41125907	9.32699949	1.57447353	4.90220821	9.65517069
5208	52.07000000	10.46382297	-1.29255553	7.10716717	11.58050509	1.82161454	1.46538979	12.74775157	0.95279761	1.42843827	11.63347859	-0.98569944	0.06767708	9.21666884	-0.71693106	-1.39783223	7.27234552	1.69612897	-2.13259908	4.94988126	-1.30988964	9.45990378	-2.21371002	6.01296431	10.72377226
5209	52.08000000	10.81690623	-1.25885671	7.17708068	11.88161336	1.53090847	1.85606419	13.21870941	1.29409663	2.14105664	11.92037948	-1.55352798	0.50370959	10.77113056	3.25972284	-0.31244026	9.25882650	1.71836121	-1.29611609	4.77791191	-1.26033600	9.53942810	-0.59547367	3.96144683	11.64338792
5210	52.09000000	11.07409769	-1.22729020	7.22928511	12.17742072	1.21102953	2.16700893	13.47073259	1.60441940	2.84220406	12.12194822	-2.07690700	0.84818246	12.49968213	6.37614645	2.06479806	12.13270100	2.11286826	-0.05485120	4.58308212	-1.20770599	9.63718214	5.39886221	0.28524508	12.78922257
5211	52.10000000	11.32963849	-1.17495013	7.27532619	12.47358799	0.82926841	2.65897014	13.61089476	1.63663797	3.34853492	12.27112932	-2.40799817	1.08496800	13.83606170	6.08284963	4.03508428	14.57154680	2.90906966	1.55617537	4.42948786	-1.07404435	9.87555308	12.18893923	-1.72198190	14.27122705
5212	52.11000000	11.62485942	-1.08609727	7.32873202	12.72513784	0.36397489	3.42790571	13.77537047	1.30188484	3.55646857	12.39144853	-2.46739984	1.22156467	14.40536264	1.61468485	4.49641419	15.67078929	4.16340402	3.19607363	4.33724864	-0.82889242	10.21448493	16.90558429	-0.54035104	15.85696369
5213	52.12000000	11.88022836	-0.96144026	7.40692812	12.77393671	-0.18089142	4.19643011	14.16170723	0.86797204	3.54278826	12.48463941	-2.32863669	1.31733213	14.26451674	-3.78935495	3.71315820	15.47894472	5.99348644	3.84004263	4.22748765	-0.54843437	10.25000297	18.34000937	1.34160798	16.55768394
5214	52.13000000	11.99918342	-0.80649709	7.52063363	12.46713490	-0.78406253	4.66315258	14.93204970	0.61242202	3.40365879	12.54107991	-2.07894668	1.43263973	13.52677557	-6.66318806	2.14869441	14.20819646	8.39799689	2.53920065	4.03790337	-0.33973140	9.59764561	15.74673702	1.20155163	15.43818225
5215	52.14000000	11.87818154	-0.65346057	7.60588990	11.86449383	-1.28135878	4.80036764	15.79732761	0.41477482	3.18339077	12.46435742	-1.73352235	1.56583824	12.28360010	-6.78955071	0.41225566	12.42903598	10.06232007	0.08374999	4.01559432	-0.47964308	8.58273797	10.84401658	-0.49750553	13.17246566
5216	52.15000000	11.40998332	-0.54999241	7.55495794	11.15087733	-1.42485607	4.74173902	16.20334528	-0.07922676	2.89549691	12.10722863	-1.26527556	1.67871719	10.61437646	-5.86550727	-0.80268008	10.92133263	8.90332774	-1.71428571	4.58963077	-1.34369116	7.94791147	6.79726659	-1.41869852	11.38044180
5217	52.16000000	10.57680218	-0.48718799	7.31795434	10.44348781	-1.08548229	4.60384089	15.81869560	-1.01679414	2.50928107	11.40044900	-0.69367480	1.73819905	8.76378744	-5.12526084	-1.18340603	10.04269764	4.15516999	-1.90835082	6.07321077	-2.98862269	8.13809652	5.45564069	-0.33293245	10.96321001
5218	52.17000000	9.56055127	-0.32948185	6.97534952	9.70494923	-0.40177113	4.46046228	14.81671848	-2.07642155	1.89629343	10.45027600	-0.14328825	1.72371354	7.34568518	-4.71503999	-1.26924763	9.20253286	-1.98663908	-1.51244882	8.51574244	-4.75706762	8.92193816	5.68961810	1.46311582	11.19073700
5219	52.18000000	8.56749963	0.05509202	6.61869478	8.89205492	0.44920378	4.37137417	13.44644839	-2.87641882	0.94555517	9.40725957	0.26074726	1.61629395	6.95438511	-4.61468352	-1.63856318	7.78724739	-7.02879480	-1.69726026	11.82576094	-5.94520911	9.96429179	6.06332172	2.45578463	11.19003678
5220	52.19000000	7.77640586	0.58441394	6.27185108	8.11732867	1.26630322	4.31139464	12.03330387	-3.06850422	-0.13700145	8.63405738	0.53423366	1.39605690	7.46683770	-4.60602601	-2.08250784	6.27039080	-9.54030717	-2.51232643	14.82595872	-6.36724783	10.80319951	6.13893956	2.41947596	10.89078666
5221	52.20000000	7.34938446	1.05036346	5.91889262	7.58479969	1.83448846	4.20544337	10.94695204	-2.32503232	-0.95931902	8.61704033	0.77586326	1.04279263	8.33735000	-4.35482708	-1.92962703	5.76422718	-8.72124652	-3.34654922	15.70381092	-6.14266825	10.90330513	6.06721519	1.88792653	10.69532182
5222	52.21000000	7.36048846	1.30643581	5.57451758	7.42185673	2.00170140	4.02426615	10.38508178	-0.51516597	-1.30402454	9.54338736	1.03116183	0.58173236	9.13419338	-3.68155654	-0.88361214	6.82962396	-4.70233471	-3.74406884	13.77729925	-5.32732430	10.02820490	5.95364677	1.28730226	10.82757607
5223	52.22000000	7.68776213	1.34724090	5.32290190	7.58224412	1.75681138	3.84229811	10.16037636	2.05339515	-1.34888047	10.92913213	1.22463587	0.13950781	9.69211272	-2.75523153	0.50145313	8.77871505	0.32737234	-3.61445589	10.90518755	-3.82628902	8.61065477	5.78580470	0.78185145	11.09979095
5224	52.23000000	8.18438566	1.19077737	5.24666038	7.99071201	1.11993522	3.73806382	10.02811808	5.00232926	-1.30964480	12.21386718	1.27002585	-0.14883228	9.90113722	-1.80015710	1.58219214	10.77062666	4.06212367	-2.94003203	9.15473669	-1.68116773	7.23571791	5.54652977	0.48899577	11.28406399
5225	52.24000000	8.72064762	0.89938383	5.31524082	8.51524128	0.23692141	3.68746701	9.68880000	7.83681056	-1.24238076	12.98552766	1.13897412	-0.20298602	9.84980613	-1.12453996	1.98127545	12.12918901	5.86664358	-1.94372063	9.19655222	-0.55369085	7.12610065	5.33456442	0.40859694	11.31313490
5226	52.25000000	9.17711367	0.56144651	5.43147070	8.99063556	-0.67240493	3.60605324	8.81159925	9.99426915	-1.10926341	12.92101865	0.83759133	0.02464659	9.74339097	-1.08490251	1.47967274	12.27754324	6.09157127	-0.98996338	10.87421196	-3.05118029	9.87277860	5.31639742	0.47126507	11.21460583
5227	52.26000000	9.47351018	0.24225240	5.52743452	9.31773909	-1.42930688	3.44730260	7.27871438	11.12048594	-0.93976694	12.00699781	0.43800717	0.49556486	9.70855800	-1.78786848	0.14564909	11.09468385	5.19020454	-0.35520000	13.36852719	-9.63188385	15.39552520	5.52597711	0.62842713	11.03684671
5228	52.27000000	9.61664518	-0.04520329	5.60241832	9.54570718	-1.94885978	3.25107795	5.44855510	11.32808198	-0.91623550	10.91869819	0.15866350	0.98009739	9.69321748	-2.78107725	-1.31606259	9.47387249	3.81646740	-0.11543297	14.40534981	-15.93161918	19.87459332	5.69956479	0.87995530	10.87183021
5229	52.28000000	9.62698899	-0.29369889	5.66677770	9.73760512	-2.16704233	3.06666710	3.74247912	10.78404341	-1.19423949	10.35739793	0.20733483	1.24429964	9.63113507	-3.55757450	-2.17165257	8.37454209	2.60746699	-0.30425162	11.81603282	-17.36874795	19.44820114	5.57040453	1.22119011	10.80715741
5230	52.29000000	9.54441611	-0.48257239	5.75127526	9.89293072	-2.10459013	2.91999326	2.56649887	9.56449308	-1.43941078	10.33141679	0.47729380	1.27714964	9.55974861	-3.82762016	-2.27618541	8.02247030	1.74645414	-0.79736988	6.55344580	-13.85292510	15.04417665	5.25641674	1.53301848	10.82439208
5231	52.30000000	9.42013319	-0.58330807	5.89853216	9.97376128	-1.83225655	2.82311572	2.31562802	7.69289296	-1.03038800	10.44087383	0.67678568	1.19908699	9.57734674	-3.43067518	-1.83227127	8.21048890	1.14888105	-1.37751153	1.40774297	-7.94233167	10.40954769	5.10162865	1.62937277	10.84270168
5232	52.31000000	9.28106368	-0.58326195	6.11307314	9.95882842	-1.42478261	2.77095076	2.97224691	5.39203979	0.22454315	10.40940555	0.62018328	1.12147463	9.71724610	-2.43178197	-1.07699350	8.69855836	0.71660941	-1.85754596	-1.70656688	-1.99704778	7.96832134	5.27671163	1.44350164	10.81436972
5233	52.32000000	9.09962185	-0.50543059	6.31407745	9.86510331	-0.96436445	2.72056377	3.59835742	3.33101839	1.55016273	10.24802107	0.36399423	1.13163188	9.86603860	-1.39558972	-0.31433144	9.18578016	0.32889993	-2.12028722	-2.88175977	2.14124289	7.11118835	5.55901292	1.17681126	10.76736998
5234	52.33000000	8.84746919	-0.37787150	6.41759309	9.71285048	-0.53186962	2.62966276	3.24454249	2.18497615	2.12034014	10.00334297	0.00032559	1.29980287	9.90238461	-0.90374921	0.16540406	9.39429832	-0.11596327	-2.07471158	-2.49043236	2.92882561	6.88368441	5.69422957	1.04575232	10.73755116
5235	52.34000000	8.56463705	-0.23110455	6.42655691	9.50291880	-0.18403633	2.51546181	2.12913359	2.06824961	1.93402766	9.68823627	-0.34942781	1.55353958	9.82801563	-1.01555190	0.30645482	9.36915047	-0.49173516	-1.80218145	-0.99592087	1.17397886	7.00519388	5.65072987	1.04751241	10.73633182
5236	52.35000000	8.33136536	-0.09706657	6.39508861	9.22489604	0.03670609	2.43017072	1.15816082	2.76425644	1.47623076	9.29580111	-0.54688349	1.73655897	9.71724794	-1.48218739	0.19149526	9.34542977	-0.53836680	-1.48550607	1.08503568	-0.93097006	7.59171433	5.52814773	1.05021806	10.76071071
